HIERARCHY
ROOT Hips
{
    OFFSET 0.000000 0.000000 0.000000
    CHANNELS 6 Xposition Yposition Zposition Zrotation Xrotation Yrotation
    JOINT Spine
    {
        OFFSET -0.000000 7.246840 0.000000
        CHANNELS 3 Zrotation Xrotation Yrotation
        JOINT Spine1
        {
            OFFSET -0.000000 20.289354 0.000000
            CHANNELS 3 Zrotation Xrotation Yrotation
            JOINT Neck
            {
                OFFSET -0.000000 20.206032 1.836912
                CHANNELS 3 Zrotation Xrotation Yrotation
                JOINT Head
                {
                    OFFSET -0.000000 12.372654 -1.767522
                    CHANNELS 3 Zrotation Xrotation Yrotation
                    End Site
                    {
                        OFFSET -0.000000 22.094025 0.000000
                    }
                }
            }
            JOINT LeftShoulder
            {
                OFFSET 3.465871 17.201674 -0.568930
                CHANNELS 3 Zrotation Xrotation Yrotation
                JOINT LeftArm
                {
                    OFFSET 14.070313 0.000000 0.000000
                    CHANNELS 3 Zrotation Xrotation Yrotation
                    JOINT LeftForeArm
                    {
                        OFFSET 26.549477 0.000000 0.000000
                        CHANNELS 3 Zrotation Xrotation Yrotation
                        JOINT LeftHand
                        {
                            OFFSET 18.880413 0.000000 0.000000
                            CHANNELS 3 Zrotation Xrotation Yrotation
                            End Site
                            {
                                OFFSET 13.256415 0.000000 0.000000
                            }
                        }
                    }
                }
            }
            JOINT RightShoulder
            {
                OFFSET -3.526370 17.201674 -0.568930
                CHANNELS 3 Zrotation Xrotation Yrotation
                JOINT RightArm
                {
                    OFFSET -14.070313 0.000000 0.000000
                    CHANNELS 3 Zrotation Xrotation Yrotation
                    JOINT RightForeArm
                    {
                        OFFSET -26.549477 0.000000 0.000000
                        CHANNELS 3 Zrotation Xrotation Yrotation
                        JOINT RightHand
                        {
                            OFFSET -18.880413 0.000000 0.000000
                            CHANNELS 3 Zrotation Xrotation Yrotation
                            End Site
                            {
                                OFFSET -13.256415 0.000000 0.000000
                            }
                        }
                    }
                }
            }
        }
    }
    JOINT LeftUpLeg
    {
        OFFSET 8.837609 0.000000 0.000000
        CHANNELS 3 Zrotation Xrotation Yrotation
        JOINT LeftLeg
        {
            OFFSET -0.000000 -41.345005 0.000000
            CHANNELS 3 Zrotation Xrotation Yrotation
            JOINT LeftFoot
            {
                OFFSET -0.000000 -35.500874 0.000000
                CHANNELS 3 Zrotation Xrotation Yrotation
                JOINT LeftToeBase
                {
                    OFFSET -0.000000 -5.744446 13.256415
                    CHANNELS 3 Zrotation Xrotation Yrotation
                    End Site
                    {
                        OFFSET -0.000000 0.000000 3.535044
                    }
                }
            }
        }
    }
    JOINT RightUpLeg
    {
        OFFSET -8.837609 0.000000 0.000000
        CHANNELS 3 Zrotation Xrotation Yrotation
        JOINT RightLeg
        {
            OFFSET -0.000000 -41.345005 0.000000
            CHANNELS 3 Zrotation Xrotation Yrotation
            JOINT RightFoot
            {
                OFFSET -0.000000 -35.500874 0.000000
                CHANNELS 3 Zrotation Xrotation Yrotation
                JOINT RightToeBase
                {
                    OFFSET -0.000000 -5.744446 13.256415
                    CHANNELS 3 Zrotation Xrotation Yrotation
                    End Site
                    {
                        OFFSET -0.000000 0.000000 3.535044
                    }
                }
            }
        }
    }
}
MOTION
Frames:    7
Frame Time:    0.010000
4.809896    86.303619    103.274246    4.120635    -1.899027    11.853826    -8.256531    -14.341609    -1.729335    1.398997    10.121079    -0.812781    -0.824566    28.489719    -2.588564    4.679986    -15.139654    -1.524616    5.300717    7.354692    14.583294    -65.844872    34.454727    -6.176211    5.374301    -19.479816    -35.931858    -55.851688    -15.971246    -3.657330    -8.734681    8.687000    5.000473    65.118111    32.064896    1.516337    -10.761719    -19.016392    30.240259    42.357929    -10.550867    14.992446    -1.835363    2.241076    6.808747    0.437004    9.066051    -2.288991    -1.542339    1.443380    -7.977926    -0.304136    -11.182104    0.458885    -8.642654    -0.376726    -12.524930    1.726405    12.762884    2.647208    16.535753    3.010663    -3.929300    -3.578334    -5.041063    6.790346    
4.805721    86.370148    103.405678    3.890184    -1.262443    11.913521    -7.885943    -14.816408    -1.732931    1.147005    9.971745    -0.806016    -0.739225    28.185068    -2.741772    4.527727    -14.754635    -1.727409    5.615036    7.258459    14.635118    -65.057312    34.507751    -6.106188    5.544238    -19.526566    -35.773483    -55.116371    -16.184820    -3.294652    -8.815233    8.541481    4.991747    64.250870    31.249733    1.467487    -10.851216    -18.992752    29.057028    42.410347    -10.424645    15.475676    -1.854023    2.695735    6.675039    0.381131    6.847122    -2.560885    -0.987615    0.978787    -7.297164    -0.225408    -11.461483    0.340818    -8.488773    -0.282488    -12.425058    2.066315    11.511962    2.792187    16.050964    2.931386    -4.298225    -3.438570    -4.690093    6.498231    
4.794991    86.347115    103.531204    3.657351    -0.638208    11.955955    -7.544825    -15.283470    -1.775942    0.961521    9.855989    -0.845137    -1.089403    27.902039    -2.541986    4.817187    -14.530855    -1.488868    5.872119    7.171605    14.716080    -64.252014    34.500816    -5.997059    5.839687    -19.079592    -35.610199    -54.365185    -15.805504    -3.026138    -9.001275    8.339634    5.140590    63.518978    30.375223    1.427345    -11.445569    -18.890606    27.508696    43.526134    -9.866133    16.194214    -1.843512    3.167206    5.969010    0.177505    4.611864    -2.247746    -0.400279    -0.041352    -7.041518    -0.266449    -11.448619    0.402833    -8.301077    -0.172277    -12.235489    2.392193    10.270856    2.636677    15.383881    2.751473    -4.337273    -3.199720    -4.298399    6.019458    
4.783408    86.236534    103.657242    3.396823    -0.052398    12.027398    -7.216254    -15.652032    -1.784940    0.753544    9.603651    -0.855123    -0.985871    27.737585    -2.570081    4.756598    -14.395859    -1.526155    6.252112    7.127962    14.662896    -63.624413    34.361805    -5.834737    6.097341    -18.634615    -35.465549    -53.331982    -15.425611    -2.795551    -8.996850    8.195161    5.181190    62.591610    29.690151    1.495814    -11.417641    -19.183481    26.135504    43.151131    -10.294374    16.413860    -1.735596    3.535640    5.024164    -0.168489    2.734082    -2.046122    -0.655201    -0.661650    -6.839640    -0.330276    -10.574807    0.496069    -8.021531    0.000153    -12.012257    2.648372    8.998941    2.362604    14.431827    2.305291    -4.227993    -2.877216    -3.790070    5.381221    
4.767969    86.042175    103.767738    3.156751    0.533129    12.123974    -7.095846    -15.940201    -1.824612    0.875411    9.277514    -0.900891    -0.933264    27.542526    -2.605088    4.589605    -14.256487    -1.604403    6.472834    7.069637    14.525825    -63.080456    34.112110    -5.581388    6.362200    -18.114954    -35.378784    -52.237701    -14.945550    -2.598855    -9.168734    7.960900    5.156796    61.772968    29.137096    1.494861    -11.376615    -19.704357    24.755814    42.493896    -10.975441    16.723295    -1.624786    3.778944    3.815107    -0.450324    1.222276    -2.020398    -0.335650    -0.535053    -6.338351    -0.421468    -10.634555    0.633316    -7.744636    0.173965    -11.738238    2.908970    7.779115    2.268991    13.138374    1.644450    -4.231177    -2.303365    -3.901147    4.314369    
4.752287    85.761353    103.860786    2.958493    1.090584    12.227416    -7.071348    -16.017832    -1.823050    0.991856    8.722762    -0.902505    -0.592133    27.345240    -2.716774    4.263768    -14.115608    -1.772712    6.810959    7.012969    14.266022    -62.746830    33.876564    -5.184274    6.663737    -17.657375    -35.328568    -50.925323    -14.465897    -2.511776    -9.134256    7.890111    5.039807    60.745373    28.126764    1.643004    -11.199506    -19.876999    23.319269    42.035961    -11.430046    16.683283    -1.529847    3.922719    2.563810    -0.683666    0.150278    -3.175940    -0.325838    0.069718    -4.825422    -0.396314    -9.763873    0.591713    -7.478109    0.357023    -11.439157    3.153124    6.597757    2.051706    11.558750    0.829355    -4.248584    -1.948217    -3.674414    3.639849    
4.744655    85.404053    103.943756    2.827836    1.601337    12.382506    -7.061139    -16.164108    -1.870624    1.044295    8.441166    -0.943775    -0.373380    27.198690    -2.782732    4.084314    -14.284650    -1.858338    7.174936    7.002146    14.053438    -62.352711    33.414467    -5.003480    6.760726    -17.155783    -35.284050    -49.389153    -13.963627    -2.523557    -9.176618    7.602170    4.973684    59.819897    27.414261    1.732487    -11.078146    -20.165894    22.014521    40.983208    -11.980947    16.889286    -1.500102    4.023339    1.443382    -0.816566    -0.764883    -3.087451    0.403731    0.252765    -5.007016    -0.518357    -8.991017    0.769614    -7.289435    0.596788    -10.928601    3.426082    5.494924    1.906966    9.597599    -0.187584    -4.480608    -1.411739    -3.672699    2.637798    
